<?xml version="1.0" encoding="utf-8"?>
<!-- Generator: Adobe Illustrator 19.2.1, SVG Export Plug-In . SVG Version: 6.00 Build 0)  -->
<svg version="1.1" id="Layer_1" xmlns="http://www.w3.org/2000/svg" xmlns:xlink="http://www.w3.org/1999/xlink" x="0px" y="0px"
	 width="100px" height="100px" viewBox="0 0 100 100" style="enable-background:new 0 0 100 100;" xml:space="preserve">
<style type="text/css">
	.st0{fill:#5C96BC;}
</style>
<path class="st0" d="M49.1,97.2c-1.8-0.2-3.7-0.4-5.5-0.7c-10.7-1.7-19.7-6.5-27-14.4C9.9,74.9,6,66.4,4.8,56.7
	c-1.4-11.4,1-22,7.5-31.6c5.9-8.9,14-15,24.1-18.3C62.7-1.9,90.8,14.7,96,41.9C100.9,67,84.9,91,59.7,96.2c-2,0.4-4,0.5-5.9,0.8
	c-0.5,0.1-0.9,0.2-1.4,0.2C51.2,97.2,50.1,97.2,49.1,97.2z M92.9,50.9C92.9,27.5,74.3,9.2,52,8.5C28.2,7.8,8.6,26.6,8.4,50.4
	C8.2,74.5,27.3,92.7,49.8,93C73.8,93.4,92.7,74.6,92.9,50.9z"/>
<path class="st0" d="M90.4,50.8c0,21.9-17.7,39.8-39.7,39.8c-22,0-39.9-17.8-39.9-39.6c0-22,17.7-39.8,39.6-39.9
	C71.8,10.9,90.4,28,90.4,50.8z M67.5,55.5c0.4,0,0.6,0,0.7,0c3.8,0.5,7.5,0.4,11.2-0.6c3-0.8,5.7,0.2,7.7,2.7
	c0.1,0.2,0.3,0.3,0.5,0.4c1.3-4.2,0.9-13.8-0.7-17c-2.7,6.3-7.2,10.3-14,11.8c1.9-1.3,3.6-2.4,5.3-3.7c3.7-2.9,6.3-6.6,7.3-11.3
	c0.1-0.6,0.1-1.3-0.2-1.8c-3-7-7.7-12.5-14-16.7c-0.3-0.2-0.6-0.3-0.9-0.5c0.2,1.7,0.3,3.1,0.5,4.8c-0.9-1.8-1.6-3.4-2.6-4.9
	c-3.5-4.8-10.7-4.7-14.3,0.1c-1.5,2.1-1.5,4.6-2.3,6.9c0,0.1,0,0.2,0,0.3c0.8,1.2,1.6,2.3,2.3,3.4c0.9-1.3,1.7-2.6,2.5-3.9
	c0.1,0.1,0.3,0.1,0.4,0.2c-1.8,3.5-1.4,6.9,0.6,10.1c1.3,2.1,1.6,3.9,0.2,5.9c-0.4,0.6-0.2,1.1,0.2,1.6c1.6,2,3.1,4,4.8,6
	c0.9,1.1,1.3,2.3,1.1,3.6c0,0.3-0.3,0.8-0.6,0.9c-0.6,0.4-1.4,0.6-2.2,1c0.6,1.2,1.2,2.3,1.8,3.3c0.4,0.7,0.4,1.2-0.1,1.8
	c-0.2,0.2-0.4,0.5-0.6,0.7c1.7,1,3.3,2,4.9,3c0.8-0.7,1.6-1.4,2.4-2.2c0.1,0.1,0.1,0.1,0.2,0.2c-0.6,1.8-1.5,3.6,0.1,5.2
	c2,2,3.8,0.5,5.7-0.7c-0.2,0.7-0.3,1-0.4,1.3c-0.8,1.6-0.4,3,0.7,4.2c1.1,1.3,2.5,1.8,4.2,1.4c1.9-0.5,4.1-3.3,4.5-5.6
	c-0.4,0-0.7,0.1-1.1,0.1c-3.8,0.2-6.3-3-5.2-6.1c0.3-0.9,0-1.3-0.7-1.5c-1-0.3-2.1-0.5-3.2-0.8c0.3-0.6,0.6-1.2,0.9-1.9
	C72.3,57.5,70,56.8,67.5,55.5z M49.6,59.7c0.9-1.1,1.7-2.1,2.6-3.2c-0.4-0.6-0.8-1.3-1.2-1.9c-0.2-0.1-0.3-0.2-0.5-0.3
	c-0.5,0.7-1,1.4-1.4,2.1c-0.2-1.6,0.4-2.7,1.5-3.6c1.3-1,1.5-1,2.1,0.5c0.7,1.7,1.1,1.9,2.9,1.2c1.7-0.7,3.4-1.4,5.2-2.1
	c1.1-0.5,1.2-0.8,0.5-1.7c-1.2-1.6-2.4-3.1-3.7-4.6c-1.1-1.4-1.1-1.4-2.6-0.5c0,0-0.1,0-0.4-0.1c0.2-0.6,0.5-1.1,0.6-1.7
	c0.1-0.3-0.1-0.6-0.1-0.9c-0.3,0.1-0.6,0.1-0.7,0.3c-0.6,0.8-1.1,1.6-1.7,2.5c-2.3-0.9-4.7-1.4-7.3-0.7c2.3-2.6,5.3-3.5,8.6-3.8
	c-2.4-1.4-4.9-0.8-7.4-0.4c0.2-0.2,0.4-0.3,0.6-0.4c2.6-1.3,5.3-1.6,8.2-1.3c1.1,0.1,1.3-0.2,0.8-1.1c-1.9-3.4-3.8-6.8-5.8-10.1
	c-0.2-0.3-0.6-0.7-1-0.8c-5.2-1.4-10.5-1.8-15.8-0.4c-0.9,0.2-1.3,0.7-1.1,1.5c0.3,2.1,0.4,4.3,1,6.3c0.7,2.7,2.7,4.6,5,6.1
	c-1.2,0.8-2.4,1.4-3.4,2.3C34.6,43.5,34,44.3,34,45c0.1,2.4,0.7,4.7,1.8,6.9c0.6,1.3,1.4,2.3,3,2.2c0.4,0,0.8,0.2,1.3,0.3
	C43.7,55.4,46.8,57.1,49.6,59.7z M56.5,56.7c-0.1-0.1-0.2-0.2-0.3-0.2c-0.8,0.5-1.7,0.9-2.4,1.5c-2.8,2.5-4.1,5.7-4.2,9.5
	C49.3,72.1,50,76.3,53,80c0.6,0.8,1.4,1.4,2.1,2.1c-0.8-1.8-1.7-3.5-2.3-5.3c-0.6-1.9-0.6-3.8-0.1-6c0.2,0.6,0.3,1,0.4,1.4
	c1,3.5,2.1,7,5,9.5c2.1,1.8,2.4,1.8,4.2-0.2c1.1-1.2,2.1-2.6,2.6-4.1C56.9,72.6,55.6,65.1,56.5,56.7z M41.1,60.5
	c-9.3,5.6-10.2,11.4-9.1,15.1c0.1-0.3,0.2-0.5,0.3-0.7c0.9-3,2.7-5.4,5.2-7.3c2.9-2.2,6.2-3.5,9.7-4.3c0.5-0.1,1-0.6,1.2-1
	c0.1-0.3-0.2-0.9-0.6-1.2c-2.8-2.7-6.3-4.3-10.1-4.9c-0.5-0.1-1.2,0.2-1.6,0.5c-2.7,2.2-4.3,5-5.1,8.3c-0.2,0.7-0.2,1.5-0.3,2.3
	C33.2,63.3,36.5,61.2,41.1,60.5z M30.4,53.4c-0.4,0.3-0.7,0.5-1,0.8c-1.5,1-3,2.2-4.7,3c-3.6,1.9-6.3,4.7-8.2,8.3
	c-0.1,0.2-0.3,0.5-0.3,0.7c-0.1,1.6,2,3.7,3.6,3.7c3.3,0,6.1-1.2,8.5-3.4c0.2-0.2,0.4-0.4,0.5-0.7c0.5-1.8,0.9-3.6,1.4-5.5
	c-2.7,0.6-5.4,1.1-8.3,0.2c3-0.3,5.8-0.9,8.2-2.3c0.3-0.2,0.7-0.7,0.7-1C30.8,56,30.6,54.7,30.4,53.4z M47.5,67.9
	c-0.2,0-0.3-0.1-0.5-0.1c-0.4,1.2-1,2.4-1.3,3.6c-1.1,4.3-0.3,8.6,0.9,12.8c0.1,0.2,0.2,0.4,0.3,0.6c2.5,1.9,4.7,4.6,8.5,3.6
	c1.8-0.5,3.6-0.7,5.4-1.1c0-0.1,0-0.2,0-0.3c-4.4-1-7.9-3.1-10.4-6.8C48,76.4,47.4,72.2,47.5,67.9z M16.2,54.3
	c0.5-0.1,1-0.2,1.4-0.4c4.4-1.3,8-3.8,11.8-6.3c1.9-1.3,2.2-3.2,3.4-5.1c-0.9-0.1-1.5,0-2.2-0.1c-1.2-0.2-2,0.3-2.6,1.3
	c-1.8,2.7-4.2,4.7-7.4,5.8c2.2-1.9,4.2-3.9,5.5-6.7C22.5,43.7,16.7,50.5,16.2,54.3z M34.7,40.6c-1-1.7-2-3.2-2.8-4.8
	c-0.3-0.6-0.7-0.8-1.3-0.6c-3.8,1.1-7.5,2.5-10.8,4.8c-2.5,1.7-4.6,3.7-5.9,6.4c-0.2,0.5-0.4,1-0.7,1.7c0.3-0.2,0.4-0.3,0.5-0.4
	c5.3-6.3,12.1-8.4,20-7.1C34.1,40.8,34.4,40.7,34.7,40.6z M58.5,62.4c-0.4,5.2,3.2,11.4,7.1,12.6c0.1-0.1,0.1-0.2,0.2-0.3
	c0.1-0.1,0.1-0.3,0.1-0.4c0.5-3.1,0-6.1-1.1-9c-0.1-0.4-0.5-0.7-0.8-1C62.4,63.2,60.5,62.6,58.5,62.4z M68.2,68.9
	c0.2,3-0.1,5.9-1.1,8.7c-1,2.9-2.9,5.2-5.1,7.4c1.4,0.2,2.8,0.4,4.1,0.1c1.6-0.4,3.1-1.2,3.8-3c1.6-4.5,1.2-8.6-1.3-12.6
	C68.6,69.2,68.4,69,68.2,68.9z M36.1,72.2c-0.1,0-0.2-0.1-0.3-0.1c-0.2,0.3-0.5,0.7-0.7,1c-1.6,3-1.7,6.1-1.2,9.4
	c0.3,1.9,1.1,2.9,2.9,3.4c1.5,0.4,3,1,4.5,1.5c0.1-0.1,0.1-0.2,0.2-0.3C37.9,82.9,36.5,77.7,36.1,72.2z M43.6,80.8
	c-0.8-5.2-0.7-10.3,2.2-15.1c-1.7,0.6-3.4,1.2-4.9,2c-2.3,1.3-2.2,0.9-1.7,3.6C39.8,74.9,41.3,78,43.6,80.8z M84.8,63.3
	c-0.5-0.8-0.9-1.4-1.4-2c-0.8-0.9-1.8-1.1-2.6-0.6c-0.9,0.5-1.4,1.8-1,2.9c0.4,1.3,1.4,1.9,2.7,2c1.4,0.2,2.6-0.4,3.3-1.6
	c1.9-2.8,0.2-6.6-3.3-7.3c-1.8-0.4-3.5-0.1-5,1.2c0.9,0.4,1.8,1,2.7,0.9c1.4-0.2,2.7-0.4,3.8,0.6C85.2,60.5,85,61.8,84.8,63.3z
	 M47.9,24.3c0-0.1-0.1-0.4-0.2-0.6c-1.1-2.3-2.9-3.6-5.4-4.2c-2.1-0.5-3.9-0.4-4.9,1.9c-0.4,1-1.3,1.8-1.8,2.5
	C39.7,24,43.8,24.1,47.9,24.3z M29.7,31.2c0-0.1,0-0.2,0-0.3c-0.5-0.2-1-0.5-1.6-0.7c-2.2-0.7-4.5-0.5-6.7-0.1
	c-1,0.2-2.3,0.2-2.7,0.8c-1.2,1.5-2,3.3-2.9,5c0.1,0.1,0.2,0.2,0.3,0.3C20.3,33.7,24.7,31.6,29.7,31.2z M79.4,75.6
	c-0.5-0.2-0.6-0.3-0.7-0.3c-3.3-0.2-5.3-1.9-6.2-5c-0.1-0.3-0.6-0.4-0.8-0.6c-0.1,0.1-0.2,0.2-0.2,0.3c1.7,3.7,1.9,7.5,1.1,11.4
	c0.1,0.1,0.2,0.1,0.4,0.2C75,79.6,77.1,77.7,79.4,75.6z M28,22.9c3.8-1.1,7.2-2.9,9.7-6c0.3-0.4,0.4-1,0.8-1.8
	C33.9,16.6,29.9,18.4,28,22.9z M21.3,74.3c1.2,2.3,6.1,4.3,8.8,3.7c-0.2-0.9-0.4-1.9-0.5-2.9c-0.1-0.7-0.4-0.8-1.1-0.8
	c-1.7,0.1-3.4,0.2-5.2,0.2C22.7,74.6,22.1,74.4,21.3,74.3z M30.6,49.7c-0.1-0.1-0.2-0.1-0.3-0.2c-4.5,3.1-9,6-14.5,7.2
	c1,0.2,2.1,0.3,3.1,0.2c4.5-0.6,8-3.1,11.2-6.1C30.4,50.5,30.4,50,30.6,49.7z M43,13.7c0,0.1,0,0.3,0,0.4c4.2,0.2,6.5,2.6,7.4,6.6
	c0.4-2.5-0.1-4.8-1.2-7c-0.1-0.2-0.5-0.6-0.7-0.6C46.7,13.3,44.8,13.5,43,13.7z M28.9,33.4c-0.1,0-0.3,0-0.4,0
	c-4.9,0.7-9,3-13.1,5.7c-1.2,0.8-1.4,2-1.4,3.3C18.1,37.9,23.3,35.4,28.9,33.4z M33.1,23.3c-1.9,0.7-3.9,1.4-5.8,2.1
	c-0.3,0.1-0.5,0.7-0.4,1.1c0.1,0.5,0.3,1.2,0.7,1.4c0.9,0.5,1.9,0.6,3.1,1C30.1,26.3,31.8,24.9,33.1,23.3z M47.9,88.6
	c0-0.1,0-0.2,0.1-0.3c-1.5-1.5-3.2-2.8-4.6-4.4c-1.4-1.6-2.6-3.4-3.8-5.1c0,0-0.1,0.1-0.1,0.2c1.1,3.6,2.9,6.7,6,8.9
	C46,88.3,47,88.3,47.9,88.6z M28.7,69.3c-2.4,1-4.7,1.9-7.1,2.8c2.3,0.7,4.6,0.9,7,0.2c0.2-0.1,0.4-0.4,0.4-0.5
	C28.9,70.9,28.7,70.1,28.7,69.3z M52.5,16.9c1.5-1.1,3-2.2,4.6-3.4c-2-0.2-3.8-0.4-5.8-0.5C51.8,14.5,52.2,15.7,52.5,16.9z
	 M25.3,22.6c-1.7,1.9-3.2,3.5-4.8,5.2c0.1,0.1,0.1,0.2,0.2,0.3c1.4-0.2,2.8-0.3,4-0.5C25,26,25.1,24.5,25.3,22.6z M40,17
	c2.9,0.3,5.6,1,7.9,3.3c-0.6-2.4-2.2-3.9-4.3-4C42.4,16.2,41,15.9,40,17z M18.4,59.1c-1.1-0.1-2.1-0.2-3.1-0.3
	c-0.2,0-0.6,0.3-0.6,0.4c0,1.3,0.1,2.7,0.2,4c0.1,0,0.2,0,0.3,0C16.3,62,17.3,60.6,18.4,59.1z M35,54.8c-0.8-1.6-1.5-3.1-2.3-4.6
	c-0.1,0-0.2,0-0.3,0c0.1,2.1,0.2,4.2,0.3,6.3c0.1,0,0.2,0,0.3,0.1C33.8,55.9,34.4,55.3,35,54.8z M26.8,80.2c1.8,1.2,3.4,2.3,5,3.4
	c0.1-0.1,0.3-0.2,0.4-0.3c-0.4-0.9-0.7-1.9-1.1-2.8c-0.1-0.1-0.3-0.2-0.5-0.2C29.5,80.2,28.3,80.2,26.8,80.2z M17.3,47.1
	c-2.7,1.8-4.8,6-4,8.1C14.6,52.5,16,49.8,17.3,47.1z M59.1,55.8c-0.1,0-0.2,0-0.2,0c-0.1,0.7-0.4,1.4-0.4,2.2c0,0.7,0.1,1.4,0.2,2
	c0.6-0.4,1.3-0.7,1.9-1.1c0,0,0-0.1,0.1-0.2C60.1,57.8,59.6,56.8,59.1,55.8z"/>
<path class="st0" d="M70,41.6c-1.1,0.1-2,0.3-2.9,0.2c-5.8-0.4-8.1-6.8-5-11.4c2.6-3.8,7.7-4.8,12-2.5c4.6,2.5,6.5,8.2,4.4,13.5
	c-1.5,3.7-4.3,6.3-7.8,8.1c-1.2,0.6-2.5,0.9-4,0.5C68.6,47.5,70.4,45,70,41.6z M71,47.3c2.7-1.3,5.7-5.1,6.3-8.2
	c0.8-4.6-1.3-8.7-5.4-10.1c-3.9-1.3-7.8,0.4-9,4c-0.9,2.9,0.3,5.8,3,6.7c2.3,0.8,4.6-0.1,5.4-2.3c0.5-1.3,0.1-2.7-0.9-3.5
	c-1-0.8-2.3-0.8-3.5-0.1c-0.5,0.3-0.9,0.6-1.4,0.9c0.1-2.2,1.4-3.4,3.4-3.3c3.4,0.1,5.4,3.9,3.7,7.1c-0.6,1.2-0.8,2.2-0.8,3.5
	C71.8,43.9,71.3,45.6,71,47.3z"/>
</svg>
