<?xml version="1.0" encoding="utf-8"?>
<!-- Generator: Adobe Illustrator 19.2.1, SVG Export Plug-In . SVG Version: 6.00 Build 0)  -->
<svg version="1.1" id="Layer_1" xmlns="http://www.w3.org/2000/svg" xmlns:xlink="http://www.w3.org/1999/xlink" x="0px" y="0px"
	 width="100px" height="100px" viewBox="0 0 100 100" style="enable-background:new 0 0 100 100;" xml:space="preserve">
<style type="text/css">
	.st0{fill:#8C6239;}
</style>
<title>cog</title>
<path class="st0" d="M93.5,45.2l-8.4-1.5c-1.1-0.2-1.9-1-2-2.1c-0.8-3.1-2-6.2-3.6-9c-0.6-1-0.5-2.2,0.2-3.1L85,22
	c0.2-0.2,0.2-0.5,0-0.7l-6.4-6.4c-0.1-0.1-0.2-0.2-0.4-0.2c-0.1,0-0.2,0-0.3,0.1l-7.4,5.3c-0.9,0.7-2.2,0.7-3.2,0.1
	c-2.9-1.7-6-3-9.2-3.8c-1.1-0.3-2-1.2-2.2-2.4L54.2,3.7c0-0.3-0.3-1.7-0.6-1.7h-9C44.3,2,44,3.4,44,3.7l-1.2,10.1
	c-0.2,1.2-1,2.2-2.1,2.6c-3.2,0.9-6.2,2.2-9,3.9c-1,0.6-2.2,0.6-3.2-0.1L21,15c-0.1-0.1-0.2-0.1-0.3-0.1c-0.2,0-0.3,0.1-0.4,0.2
	l-6.4,6.4c-0.2,0.2-0.2,0.5-0.1,0.7l5.4,7.5c0.7,0.9,0.7,2.1,0.2,3.1c-1.6,2.8-2.9,5.8-3.7,9c-0.3,1.1-1.2,2-2.3,2.1l-7.7,1.5
	c-0.3,0-0.3,10.1,0,10.2l8.5,1.5c1.1,0.2,1.9,1.1,2,2.1c0.8,3.1,2,6.2,3.6,8.9c0.6,1,0.5,2.2-0.2,3.2l-5.3,7.4
	c-0.2,0.2-0.2,0.5,0,0.7l6.4,6.4c0.1,0.1,0.2,0.2,0.4,0.2c0.1,0,0.2,0,0.3-0.1l7.5-5.3c0.5-0.4,1.1-0.5,1.7-0.5c0.5,0,1,0.1,1.5,0.4
	c2.8,1.6,5.7,2.8,8.8,3.6c1.1,0.3,1.9,1.2,2.1,2.3l1.5,10.4c0,0.3,0.3,1.9,0.6,1.9H54c0.3,0,0.5-1.6,0.6-1.9l1.5-9.7
	c0.1-1.2,1-2.3,2.1-2.7c3.2-0.9,6.2-2.2,9-3.9c1-0.6,2.2-0.6,3.2,0l7.5,5.2c0.1,0.1,0.2,0.1,0.3,0.1c0.2,0,0.3-0.1,0.4-0.2l6.4-6.3
	c0.2-0.2,0.2-0.5,0.1-0.7l-5.3-7.4c-0.7-0.9-0.7-2.2-0.1-3.1c1.7-2.8,2.9-5.9,3.7-9c0.3-1.1,1.2-1.9,2.3-2.1l9-2.5
	C95,54.3,93.8,45.3,93.5,45.2z M49.5,70.5c-11.2,0-20.3-9.1-20.3-20.2c0-11.2,9.1-20.2,20.3-20.2c11.2,0,20.3,9.1,20.3,20.2
	C69.9,61.5,60.8,70.5,49.5,70.5C49.6,70.5,49.6,70.5,49.5,70.5L49.5,70.5z"/>
</svg>
