<svg xmlns="http://www.w3.org/2000/svg" width="16" height="17" viewBox="0 0 16 17">
  <defs>
    <style>
      .cls-1 {
        fill-rule: evenodd;
      }
    </style>
  </defs>
  <path id="download" class="cls-1" d="M367.779,1779.83v3.88H356.221v-3.88H354v5.02a1.126,1.126,0,0,0,1.113,1.14h13.775a1.125,1.125,0,0,0,1.112-1.14v-5.02h-2.221Zm-5.982-.38-3.18-3.95s-0.484-.47.04-0.47h1.792v-5.74s-0.071-.28.34-0.28h2.522a0.243,0.243,0,0,1,.289.23v5.67h1.654c0.637,0,.157.49,0.157,0.49s-2.706,3.69-3.083,4.08A0.347,0.347,0,0,1,361.8,1779.45Z" transform="translate(-354 -1769)"/>
</svg>
