<?xml version="1.0" encoding="utf-8"?>
<!-- Generator: Adobe Illustrator 19.2.1, SVG Export Plug-In . SVG Version: 6.00 Build 0)  -->
<svg version="1.1" id="Layer_1" xmlns="http://www.w3.org/2000/svg" xmlns:xlink="http://www.w3.org/1999/xlink" x="0px" y="0px"
	 width="22px" height="27px" viewBox="0 0 22 27" style="enable-background:new 0 0 22 27;" xml:space="preserve">
<path id="pdf" d="M15.1,0H4.3C2.7,0,1.4,1.3,1.4,2.9v21.3c0,1.6,1.3,2.9,2.9,2.9h14.8c1.6,0,2.9-1.3,2.9-2.9V6.8L15.1,0z M19.1,25.3
	H4.3c-0.6,0-1.1-0.5-1.1-1.1V2.9c0-0.6,0.5-1.1,1.1-1.1l10.2,0v3.8c0,1.1,0.9,2,2,2c0,0,0,0,0,0l3.7,0l0,16.6
	C20.2,24.8,19.7,25.3,19.1,25.3C19.1,25.3,19.1,25.3,19.1,25.3z"/>
</svg>
