<svg xmlns="http://www.w3.org/2000/svg" width="16" height="16" viewBox="0 0 16 16">
  <defs>
    <style>
      .cls-1 {
        fill-rule: evenodd;
      }
    </style>
  </defs>
  <path id="info" class="cls-1" d="M995,1768a8,8,0,1,0,8,8A8,8,0,0,0,995,1768Zm-1,4h2v0.94c0,0.02.012,0.04,0.012,0.06s-0.011.04-.012,0.06V1774h-0.967c-0.012,0-.022.01-0.033,0.01s-0.022-.01-0.033-0.01H994v-0.94c0-.02-0.013-0.04-0.013-0.06s0.011-.04.013-0.06V1772Zm2.619,8.01H993.38a0.427,0.427,0,0,1-.385-0.45,0.42,0.42,0,0,1,.385-0.45L994,1779v-3l-0.62-.12a0.45,0.45,0,0,1,0-.89h2.514a0.1,0.1,0,0,0,.113-0.06,0.318,0.318,0,0,0-.007.07v4l0.619,0.11a0.421,0.421,0,0,1,.386.45A0.427,0.427,0,0,1,996.619,1780.01Z" transform="translate(-987 -1768)"/>
</svg>
