<?xml version="1.0" encoding="utf-8"?>
<!-- Generator: Adobe Illustrator 19.2.1, SVG Export Plug-In . SVG Version: 6.00 Build 0)  -->
<svg version="1.1" id="svg2" xmlns:svg="http://www.w3.org/2000/svg"
	 xmlns="http://www.w3.org/2000/svg" xmlns:xlink="http://www.w3.org/1999/xlink" x="0px" y="0px" width="150px" height="150px"
	 viewBox="0 0 150 150" style="enable-background:new 0 0 150 150;" xml:space="preserve">
<path id="path3047" d="M79.4,10c-27.9,0-50.6,23.2-50.6,51.9c0,14.6,5.9,27.8,15.3,37.2L20,128.8c4.9,3.7,9.8,7.5,14.7,11.2l26-30
	c5.8,2.4,12.1,3.7,18.8,3.7c27.9,0,50.6-23.2,50.6-51.9S107.4,10,79.4,10z M79.4,23c21,0,37.9,17.4,37.9,38.9s-17,38.9-37.9,38.9
	S41.5,83.3,41.5,61.9S58.5,23,79.4,23z"/>
</svg>
